<svg id="Layer_1" height="512" viewBox="0 0 512 512" width="512" xmlns="http://www.w3.org/2000/svg" xmlns:xlink="http://www.w3.org/1999/xlink" data-name="Layer 1"><linearGradient id="linear-gradient" gradientUnits="userSpaceOnUse" x1="256" x2="256" y1="489.927" y2="32.935"><stop offset=".322" stop-color="#a163f5"/><stop offset=".466" stop-color="#b074ee"/><stop offset=".752" stop-color="#d8a1dd"/><stop offset=".898" stop-color="#efbad3"/></linearGradient><path d="m486 225h-28a15.905 15.905 0 0 0 -4 .527v-64.527a26.029 26.029 0 0 0 -26-26h-344a26.029 26.029 0 0 0 -26 26v64.527a15.905 15.905 0 0 0 -4-.527h-28a16.019 16.019 0 0 0 -16 16v80a26.029 26.029 0 0 0 26 26h23.675l8.633 25.9a6 6 0 0 0 5.692 4.1h10a6 6 0 0 0 5.692-4.1l8.633-25.9h315.35l8.633 25.9a6 6 0 0 0 5.692 4.1h10a6 6 0 0 0 5.692-4.1l8.633-25.9h23.675a26.029 26.029 0 0 0 26-26v-80a16.019 16.019 0 0 0 -16-16zm-44-64v110a14.015 14.015 0 0 1 -14 14h-77.8a5.957 5.957 0 0 0 3.967-1.731l40-40a6 6 0 0 0 0-8.485l-40-40a6 6 0 0 0 -8.484 0l-40 40a6 6 0 0 0 0 8.485l40 40a5.955 5.955 0 0 0 3.963 1.731h-87.646v-138h166a14.015 14.015 0 0 1 14 14zm-92.079 109.541-31.515-31.515 31.515-31.514 31.515 31.514zm-279.921-109.541a14.015 14.015 0 0 1 14-14h166v138h-89.725a5.955 5.955 0 0 0 3.967-1.731l40-40a6 6 0 0 0 0-8.485l-40-40a6 6 0 0 0 -8.484 0l-40 40a6 6 0 0 0 0 8.485l40 40a5.955 5.955 0 0 0 3.967 1.731h-75.725a14.015 14.015 0 0 1 -14-14zm90 109.541-31.515-31.515 31.515-31.514 31.515 31.514zm-80.324 94.459h-1.352l-6-18h13.352zm354 0h-1.352l-6-18h13.352zm56.324-44a14.015 14.015 0 0 1 -14 14h-440a14.015 14.015 0 0 1 -14-14v-80a4 4 0 0 1 4-4h28a4 4 0 0 1 4 4v30a26.029 26.029 0 0 0 26 26h344a26.029 26.029 0 0 0 26-26v-30a4 4 0 0 1 4-4h28a4 4 0 0 1 4 4z" fill="url(#linear-gradient)"/></svg>