<svg height="468pt" viewBox="0 -37 468.0013 468" width="468pt" xmlns="http://www.w3.org/2000/svg" xmlns:xlink="http://www.w3.org/1999/xlink"><linearGradient id="a"><stop offset=".322" stop-color="#a163f5"/><stop offset=".466" stop-color="#b074ee"/><stop offset=".752" stop-color="#d8a1dd"/><stop offset=".898" stop-color="#efbad3"/></linearGradient><linearGradient id="b" gradientUnits="userSpaceOnUse" x1="236.051902" x2="236.051902" xlink:href="#a" y1="440.040423" y2="-31.016577"/><linearGradient id="c" gradientUnits="userSpaceOnUse" x1="233.996902" x2="233.996902" xlink:href="#a" y1="440.040423" y2="-31.016577"/><path d="m236.050781 191.464844c34.421875 0 62.421875-28.253906 62.421875-62.984375s-28-62.984375-62.421875-62.984375c-34.417969 0-62.417969 28.253906-62.417969 62.984375 0 34.726562 28 62.984375 62.417969 62.984375zm0-111.96875c26.699219 0 48.421875 21.972656 48.421875 48.984375 0 27.007812-21.722656 48.984375-48.421875 48.984375s-48.417969-21.976563-48.417969-48.984375c0-27.011719 21.71875-48.984375 48.417969-48.984375zm0 0" fill="url(#b)"/><path d="m395.441406 230.171875c-1.148437-2.46875-3.621094-4.050781-6.34375-4.058594h-48.871094c10.625-12.324219 19.015626-26.414062 24.789063-41.628906 6.613281-17.523437 9.40625-36.257813 8.195313-54.949219-2.332032-34.214844-17.101563-66.394531-41.523438-90.472656-53.121094-52.082031-138.152344-52.082031-191.273438 0-24.421874 24.082031-39.1875 56.265625-41.515624 90.480469-1.214844 18.6875 1.578124 37.421875 8.191406 54.941406 5.773437 15.214844 14.160156 29.304687 24.785156 41.628906h-52.976562c-2.722657.007813-5.195313 1.589844-6.34375 4.058594l-71.902344 154.082031c-1.007813 2.15625-.839844 4.679688.449218 6.679688 1.289063 2.003906 3.515626 3.203125 5.894532 3.179687h454c2.386718.023438 4.617187-1.179687 5.90625-3.191406 1.289062-2.007813 1.453125-4.539063.4375-6.695313zm23.246094 82.941406h-161.050781l69.636719-73h57.367187zm-190.859375 14 3.160156 3.3125c1.320313 1.382813 3.148438 2.164063 5.0625 2.164063 1.914063 0 3.746094-.78125 5.066407-2.164063l3.160156-3.3125h62.503906l15.851562 53h-221.273437l15.855469-53zm-13.363281-14h-70.578125l14.226562-59.050781zm-65.933594-89.382812c-12.976562-13.601563-22.507812-28.433594-28.316406-44.105469-5.921875-15.667969-8.429688-32.421875-7.355469-49.136719 2.101563-30.804687 15.402344-59.78125 37.390625-81.457031 47.667969-46.703125 123.933594-46.703125 171.601562 0 21.992188 21.675781 35.289063 50.652344 37.390626 81.460938 1.078124 16.71875-1.429688 33.46875-7.351563 49.140624-5.816406 15.671876-15.339844 30.5-28.320313 44.097657l-2.289062 2.382812h-.285156v.1875l-85.117188 89.152344-84.882812-88.90625v-.433594h-.175782zm-65.175781 16.382812h61.476562l1.78125 1.886719-17.128906 71.113281h-80.179687zm-40.582031 87h59.824218l-15.851562 53h-68.757813zm294.472656 53-15.847656-53h103.824218l24.785156 53zm0 0" fill="url(#c)"/></svg>