<svg height="512" viewBox="0 0 64 64" width="512" xmlns="http://www.w3.org/2000/svg" xmlns:xlink="http://www.w3.org/1999/xlink"><linearGradient id="gradient_ice" gradientUnits="userSpaceOnUse" x1="6.965" x2="68.963" y1="56.227" y2="-3.77"><stop offset="0" stop-color="#fff200"/><stop offset="1" stop-color="#cd118c"/></linearGradient><linearGradient id="gradient_ice-3" x1="-6.802" x2="55.196" xlink:href="#gradient_ice" y1="42.002" y2="-17.996"/><g id="Semiconductor-transistor-chip-electronics-4" data-name="Semiconductor-transistor-chip-electronics"><path d="m59 27a3 3 0 0 0 0-6h-3v-2h3a3 3 0 0 0 0-6h-3v-2a1.033 1.033 0 0 0 -.29-.71l-2-2a1.033 1.033 0 0 0 -.71-.29h-2v-3a3 3 0 0 0 -6 0v3h-2v-3a3 3 0 0 0 -6 0v3h-2v-3a3 3 0 0 0 -6 0v3h-2v-3a3 3 0 0 0 -6 0v3h-2v-3a3 3 0 0 0 -6 0v3h-2a1.033 1.033 0 0 0 -.71.29l-2 2a1.033 1.033 0 0 0 -.29.71v2h-3a3 3 0 0 0 0 6h3v2h-3a3 3 0 0 0 0 6h3v2h-3a3 3 0 0 0 0 6h3v2h-3a3 3 0 0 0 0 6h3v2h-3a3 3 0 0 0 0 6h3v2a1.033 1.033 0 0 0 .29.71l2 2a1.033 1.033 0 0 0 .71.29h2v3a3 3 0 0 0 6 0v-3h2v3a3 3 0 0 0 6 0v-3h2v3a3 3 0 0 0 6 0v-3h2v3a3 3 0 0 0 6 0v-3h2v3a3 3 0 0 0 6 0v-3h2a1.033 1.033 0 0 0 .71-.29l2-2a1.033 1.033 0 0 0 .29-.71v-2h3a3 3 0 0 0 0-6h-3v-2h3a3 3 0 0 0 0-6h-3v-2h3a3 3 0 0 0 0-6h-3v-2zm-3-12h3a1 1 0 0 1 0 2h-3zm0 8h3a1 1 0 0 1 0 2h-3zm-48 26h-3a1 1 0 0 1 0-2h3zm0-8h-3a1 1 0 0 1 0-2h3zm0-8h-3a1 1 0 0 1 0-2h3zm0-8h-3a1 1 0 0 1 0-2h3zm0-8h-3a1 1 0 0 1 0-2h3zm39-12a1 1 0 0 1 2 0v3h-2zm-8 0a1 1 0 0 1 2 0v3h-2zm-8 0a1 1 0 0 1 2 0v3h-2zm-8 0a1 1 0 0 1 2 0v3h-2zm-8 0a1 1 0 0 1 2 0v3h-2zm2 54a1 1 0 0 1 -2 0v-3h2zm8 0a1 1 0 0 1 -2 0v-3h2zm8 0a1 1 0 0 1 -2 0v-3h2zm8 0a1 1 0 0 1 -2 0v-3h2zm8 0a1 1 0 0 1 -2 0v-3h2zm5-6.41-1.41 1.41h-41.18l-1.41-1.41v-41.18l1.41-1.41h41.18l1.41 1.41zm5-5.59a1 1 0 0 1 0 2h-3v-2zm0-8a1 1 0 0 1 0 2h-3v-2zm0-8a1 1 0 0 1 0 2h-3v-2z" fill="url(#gradient_ice)"/><path d="m51 12h-38a1 1 0 0 0 -1 1v38a1 1 0 0 0 1 1h38a1 1 0 0 0 1-1v-38a1 1 0 0 0 -1-1zm-1 38h-36v-36h36z" fill="url(#gradient_ice)"/><circle cx="18" cy="18" fill="url(#gradient_ice-3)" r="2"/></g></svg>