<svg height="496pt" viewBox="0 0 496 496" width="496pt" xmlns="http://www.w3.org/2000/svg" xmlns:xlink="http://www.w3.org/1999/xlink"><linearGradient id="a" gradientUnits="userSpaceOnUse" x1="248" x2="248" y1="496" y2="0"><stop offset="0" stop-color="#9f2fff"/><stop offset="1" stop-color="#0bb1d3"/></linearGradient><path d="m80 496c44.113281 0 80-35.886719 80-80 0-25.289062-11.878906-48.894531-32-63.992188v-304.007812c0-26.472656-21.527344-48-48-48s-48 21.527344-48 48v304.007812c-20.121094 15.097657-32 38.703126-32 63.992188 0 44.113281 35.886719 80 80 80zm-35.550781-133.207031 3.550781-2.386719v-24.40625h40v-16h-40v-16h16v-16h-16v-16h40v-16h-40v-16h16v-16h-16v-16h40v-16h-40v-16h16v-16h-16v-16h40v-16h-40v-16h16v-16h-16v-16h40v-16h-40v-16c0-17.648438 14.351562-32 32-32s32 14.351562 32 32v312.40625l3.550781 2.378906c17.808594 11.925782 28.449219 31.824219 28.449219 53.214844 0 35.289062-28.710938 64-64 64s-64-28.710938-64-64c0-21.390625 10.640625-41.289062 28.449219-53.207031zm6.214843 40.40625-14.664062-6.398438c3.3125-7.578125 8.566406-14.207031 15.191406-19.191406l9.609375 12.78125c-4.425781 3.328125-7.9375 7.761719-10.136719 12.808594zm-18.664062 12.800781h16c0 17.648438 14.351562 32 32 32v16c-26.472656 0-48-21.527344-48-48zm168-280c0 74.992188 61.007812 136 136 136s136-61.007812 136-136-61.007812-136-136-136-136 61.007812-136 136zm256 0c0 66.167969-53.832031 120-120 120s-120-53.832031-120-120 53.832031-120 120-120 120 53.832031 120 120zm-128-64c0-13.230469-10.769531-24-24-24s-24 10.769531-24 24 10.769531 24 24 24 24-10.769531 24-24zm-32 0c0-4.40625 3.59375-8 8-8s8 3.59375 8 8-3.59375 8-8 8-8-3.59375-8-8zm64 24h24v16h-24c-22.054688 0-40 17.945312-40 40s17.945312 40 40 40h24v16h-24c-30.878906 0-56-25.121094-56-56s25.121094-56 56-56zm88 304c-3.441406 0-6.792969.382812-10.03125 1.070312-6.542969-23.964843-28.257812-41.070312-53.96875-41.070312-5.945312 0-11.703125.976562-17.246094 2.777344-13.417968-25.402344-40.082031-42.777344-70.753906-42.777344-44.113281 0-80 35.886719-80 80 0 .238281.039062.472656.039062.71875-22.6875 3.808594-40.039062 23.527344-40.039062 47.28125 0 26.472656 21.527344 48 48 48h224c26.472656 0 48-21.527344 48-48s-21.527344-48-48-48zm0 80h-224c-17.648438 0-32-14.351562-32-32s14.351562-32 32-32 32 14.351562 32 32h16c0-23.71875-17.3125-43.433594-39.960938-47.273438 0-.246093-.039062-.480468-.039062-.726562 0-35.289062 28.710938-64 64-64s64 28.710938 64 64h16c0-7.761719-1.167969-15.238281-3.230469-22.335938 3.621094-1.0625 7.367188-1.664062 11.230469-1.664062 19.007812 0 34.832031 13.128906 38.863281 31.183594-13.6875 8.464844-22.863281 23.570312-22.863281 40.816406h16c0-17.648438 14.351562-32 32-32s32 14.351562 32 32-14.351562 32-32 32zm-160-64h16v16h-16zm40 0h16v16h-16zm40 0h16v16h-16zm0 0" fill="url(#a)"/></svg>