<svg id="Réteg_1" data-name="Réteg 1" xmlns="http://www.w3.org/2000/svg" width="108.7101" height="32.409" viewBox="0 0 108.7101 32.409"><defs><style>.cls-1,.cls-3,.cls-4{fill:none;stroke:#fff;stroke-miterlimit:10;}.cls-1{stroke-width:0.4px;}.cls-2{fill:#fff;}.cls-4{stroke-width:2px;}</style></defs><title>logo</title><g id="controller"><circle class="cls-1" cx="19.4269" cy="21.659" r="2.75"/><circle class="cls-2" cx="16.9269" cy="12.909" r="0.5"/><circle class="cls-2" cx="21.9269" cy="12.909" r="0.5"/><circle class="cls-2" cx="21.9269" cy="14.409" r="0.5"/><circle class="cls-2" cx="21.9269" cy="12.909" r="0.5"/><circle class="cls-2" cx="16.9269" cy="14.409" r="0.5"/><circle class="cls-2" cx="16.9269" cy="15.909" r="0.5"/><circle class="cls-2" cx="19.4269" cy="14.409" r="0.5"/><circle class="cls-2" cx="19.4269" cy="15.909" r="0.5"/><circle class="cls-2" cx="21.9269" cy="17.409" r="0.5"/><circle class="cls-2" cx="21.9269" cy="15.909" r="0.5"/><circle class="cls-2" cx="16.9269" cy="17.409" r="0.5"/><circle class="cls-2" cx="19.4269" cy="17.409" r="0.5"/><circle class="cls-2" cx="16.9269" cy="26.909" r="0.5"/><circle class="cls-2" cx="19.4269" cy="26.909" r="0.5"/><circle class="cls-2" cx="21.9269" cy="26.909" r="0.5"/><rect class="cls-3" x="15.4269" y="11.409" width="8" height="17"/></g><g id="house"><polygon id="belso" class="cls-4" points="9.677 31.409 6.427 15.298 19.427 2.409 32.427 15.298 29.177 31.409 9.677 31.409"/><polygon id="kulso" class="cls-4" points="6.205 18.284 2.427 18.284 19.427 1.409 36.427 18.284 32.649 18.284 29.816 31.409 9.038 31.409 6.205 18.284"/><path id="center" class="cls-4" d="M14,32" transform="translate(-0.5731 -0.591)"/><rect class="cls-2" x="4.7487" y="15.7956" width="2.3794" height="3.2669" transform="translate(-0.5396 34.2784) rotate(-142.4799)"/><rect class="cls-2" x="32.6577" y="16.846" width="2.4117" height="2" transform="translate(24.1846 -19.9243) rotate(48.4493)"/></g><g id="wi-fi"><path class="cls-2" d="M32.5085,2.35a8.404,8.404,0,0,0-5.5363,2.39.7675.7675,0,0,0-.2472.3511.5192.5192,0,0,0-.025.2068.52.52,0,0,0,.025.2069.669.669,0,0,0,.1751.2789.6514.6514,0,0,0,.4791.1992.6131.6131,0,0,0,.251-.0443.9855.9855,0,0,0,.3406-.253,6.8862,6.8862,0,0,1,1.2535-.9581,7.0073,7.0073,0,0,1,2.9639-.9707,9.7033,9.7033,0,0,1,1.2727-.0048,7.05,7.05,0,0,1,3.0148.9755,6.9718,6.9718,0,0,1,1.2564.961.9355.9355,0,0,0,.34.25.5984.5984,0,0,0,.2491.0443A.6514.6514,0,0,0,38.8,5.7829a.669.669,0,0,0,.1751-.2789A.52.52,0,0,0,39,5.2971a.5192.5192,0,0,0-.025-.2068.7675.7675,0,0,0-.2472-.3511,8.2627,8.2627,0,0,0-2.0962-1.5A8.3723,8.3723,0,0,0,33.49,2.3679C33.32,2.3534,32.648,2.3409,32.5085,2.35Z" transform="translate(-0.5731 -0.591)"/><path class="cls-2" d="M32.4123,4.8642a6.4191,6.4191,0,0,0-1.1323.1924,5.9218,5.9218,0,0,0-2.5771,1.4719c-.1482.1462-.1636.1654-.1992.24a.6485.6485,0,0,0,.3877.91.6259.6259,0,0,0,.482-.0394.709.709,0,0,0,.2116-.16,4.5783,4.5783,0,0,1,1.2015-.8456,4.6724,4.6724,0,0,1,4.9658.531,4.5566,4.5566,0,0,1,.355.3107.6389.6389,0,0,0,.5137.23.4788.4788,0,0,0,.1876-.027.6671.6671,0,0,0,.4512-.6214.62.62,0,0,0-.0789-.3127,4.0608,4.0608,0,0,0-.8822-.7984,5.9421,5.9421,0,0,0-2.8571-1.0688C33.2742,4.8594,32.5855,4.8508,32.4123,4.8642Z" transform="translate(-0.5731 -0.591)"/><path class="cls-2" d="M32.5277,7.2115a3.6281,3.6281,0,0,0-2.0028.8283,1.9119,1.9119,0,0,0-.3463.3549.6484.6484,0,0,0,.3588.9389.4964.4964,0,0,0,.2058.0279.4644.4644,0,0,0,.1973-.0279.7255.7255,0,0,0,.2905-.19A2.3365,2.3365,0,0,1,32.597,8.51a3.1644,3.1644,0,0,1,.6426.0183,2.3369,2.3369,0,0,1,1.0014.4271c.052.0385.153.1231.2232.1866a.646.646,0,0,0,.4589.2213.6414.6414,0,0,0,.6811-.6465.6471.6471,0,0,0-.2328-.4954A3.5946,3.5946,0,0,0,33.29,7.225,6.4651,6.4651,0,0,0,32.5277,7.2115Z" transform="translate(-0.5731 -0.591)"/><path class="cls-2" d="M32.7355,9.8185a.7967.7967,0,0,0-.3328,1.4555.7171.7171,0,0,0,.4377.126.6716.6716,0,0,0,.3646-.0856.7914.7914,0,0,0,.4011-.4926.8617.8617,0,0,0,.0048-.4117.8118.8118,0,0,0-.4406-.5262A.8619.8619,0,0,0,32.7355,9.8185Z" transform="translate(-0.5731 -0.591)"/></g><path class="cls-2" d="M44.6362,13.1782H47.231a9.8349,9.8349,0,0,1,3.0356.3286,2.9867,2.9867,0,0,1,2.0054,2.8985,2.7846,2.7846,0,0,1-.6079,1.833,3.7175,3.7175,0,0,1-1.8321,1.1142L52.88,24.2959H50.2026l-2.8935-4.709H47.085v4.709H44.6362Zm2.4488,4.3457h.7675a3.4024,3.4024,0,0,0,1.6089-.2651.9468.9468,0,0,0,.4405-.88.9733.9733,0,0,0-.2183-.6328,1.2065,1.2065,0,0,0-.584-.3872,5.1115,5.1115,0,0,0-1.3428-.1172H47.085Z" transform="translate(-0.5731 -0.591)"/><path class="cls-2" d="M64.1328,20.7813H56.4619a2.1439,2.1439,0,0,0,.8877,1.3945,3.076,3.076,0,0,0,1.8408.5176,3.46,3.46,0,0,0,2.3008-.8086l2.0117.8164a4.6158,4.6158,0,0,1-1.8017,1.3642,6.3972,6.3972,0,0,1-2.4932.4424,5.3727,5.3727,0,0,1-3.6475-1.2207A3.88,3.88,0,0,1,54.1523,20.23a3.9992,3.9992,0,0,1,1.4043-3.125,5.1156,5.1156,0,0,1,3.52-1.2432,5.3237,5.3237,0,0,1,3.6563,1.2432,4.17,4.17,0,0,1,1.4082,3.2842Zm-2.3877-1.625a2.1126,2.1126,0,0,0-.9336-1.1182,3.0066,3.0066,0,0,0-1.6162-.4312,3.1777,3.1777,0,0,0-1.7529.4839,2.7567,2.7567,0,0,0-.876,1.0655Z" transform="translate(-0.5731 -0.591)"/><path class="cls-2" d="M66.0479,16.0728h2.3876v.9448a4.0982,4.0982,0,0,1,1.3614-.8692,4.5209,4.5209,0,0,1,1.6328-.2871,3.4032,3.4032,0,0,1,1.61.378,2.9233,2.9233,0,0,1,1.1553,1.1035,3.71,3.71,0,0,1,1.3955-1.1035,4.2991,4.2991,0,0,1,1.8076-.378,3.7576,3.7576,0,0,1,1.7862.4082A2.5125,2.5125,0,0,1,80.292,17.335a4.9887,4.9887,0,0,1,.3369,2.1386v4.8223H78.2236V20.124a3.1684,3.1684,0,0,0-.4023-1.8935,1.4656,1.4656,0,0,0-1.207-.4947,2.031,2.031,0,0,0-1.0977.3023,1.8341,1.8341,0,0,0-.7217.8349,4.518,4.518,0,0,0-.2363,1.712v3.7109H72.1533V20.3125a4.8926,4.8926,0,0,0-.1885-1.5977,1.46,1.46,0,0,0-.5654-.7373,1.6567,1.6567,0,0,0-.9121-.2417,1.9954,1.9954,0,0,0-1.083.3052,1.8838,1.8838,0,0,0-.7275.8584,4.6421,4.6421,0,0,0-.2413,1.7383v3.6582H66.0479Z" transform="translate(-0.5731 -0.591)"/><path class="cls-2" d="M87.3721,15.8613a5.6676,5.6676,0,0,1,2.5322.5821,4.5994,4.5994,0,0,1,1.85,1.58,3.8057,3.8057,0,0,1,.665,2.1534,3.88,3.88,0,0,1-.6689,2.1767,4.5551,4.5551,0,0,1-1.8242,1.583,5.6581,5.6581,0,0,1-2.5449.5713,5.1447,5.1447,0,0,1-3.4942-1.2588,3.9614,3.9614,0,0,1,.1875-6.269A5.2153,5.2153,0,0,1,87.3721,15.8613Zm.039,1.9424a2.6579,2.6579,0,0,0-1.8525.669,2.201,2.201,0,0,0-.74,1.7119,2.2378,2.2378,0,0,0,.7314,1.7383,2.6488,2.6488,0,0,0,1.8525.665,2.6793,2.6793,0,0,0,1.8663-.6729,2.3846,2.3846,0,0,0,.0136-3.45A2.6819,2.6819,0,0,0,87.4111,17.8037Z" transform="translate(-0.5731 -0.591)"/><path class="cls-2" d="M94.6592,13.042h2.3877v3.0308h1.417v1.7763h-1.417v6.4468H94.6592V17.8491H93.4346V16.0728h1.2246Z" transform="translate(-0.5731 -0.591)"/><path class="cls-2" d="M109.2744,20.7813h-7.6709a2.1439,2.1439,0,0,0,.8877,1.3945,3.076,3.076,0,0,0,1.8408.5176,3.46,3.46,0,0,0,2.3008-.8086l2.0117.8164a4.6158,4.6158,0,0,1-1.8017,1.3642,6.3972,6.3972,0,0,1-2.4932.4424,5.3727,5.3727,0,0,1-3.6475-1.2207A3.88,3.88,0,0,1,99.2939,20.23a3.9976,3.9976,0,0,1,1.4043-3.125,5.1157,5.1157,0,0,1,3.5206-1.2432,5.3236,5.3236,0,0,1,3.6562,1.2432,4.17,4.17,0,0,1,1.4082,3.2842Zm-2.3877-1.625a2.1126,2.1126,0,0,0-.9336-1.1182,3.0066,3.0066,0,0,0-1.6162-.4312,3.1777,3.1777,0,0,0-1.7529.4839,2.7567,2.7567,0,0,0-.876,1.0655Z" transform="translate(-0.5731 -0.591)"/></svg>