<svg xmlns="http://www.w3.org/2000/svg" viewBox="0 0 99.7953 34.2902"><title>remote</title><g id="base"><path d="M43.438,25.7061H33.8408a2.6877,2.6877,0,0,0,1.11,1.7451,3.8572,3.8572,0,0,0,2.3037.6474,4.3252,4.3252,0,0,0,2.8779-1.0117L42.65,28.1084a5.7705,5.7705,0,0,1-2.2544,1.707,8.0142,8.0142,0,0,1-3.1186.5528,6.7155,6.7155,0,0,1-4.5635-1.5274,4.85,4.85,0,0,1-1.7617-3.8242,5.0019,5.0019,0,0,1,1.7563-3.91,6.3993,6.3993,0,0,1,4.4048-1.5556,6.6556,6.6556,0,0,1,4.5742,1.5556,5.2147,5.2147,0,0,1,1.7617,4.1084ZM40.45,23.6738a2.6414,2.6414,0,0,0-1.1675-1.4,3.7648,3.7648,0,0,0-2.0224-.538,3.968,3.968,0,0,0-2.1919.6044,3.4391,3.4391,0,0,0-1.0962,1.334Z" transform="translate(-0.1324 -0.5774)"/><path d="M45.8345,19.8154h2.9873v1.1817A5.1171,5.1171,0,0,1,50.5249,19.91a5.6382,5.6382,0,0,1,2.0425-.3594,4.2576,4.2576,0,0,1,2.0151.4726,3.6548,3.6548,0,0,1,1.4448,1.3809,4.6435,4.6435,0,0,1,1.7471-1.3809,5.3778,5.3778,0,0,1,2.2617-.4726,4.6953,4.6953,0,0,1,2.2334.5107,3.1425,3.1425,0,0,1,1.3858,1.333,6.2394,6.2394,0,0,1,.4218,2.6758v6.0332h-3.01v-5.22a3.9593,3.9593,0,0,0-.5029-2.3692,1.8349,1.8349,0,0,0-1.51-.6191,2.5466,2.5466,0,0,0-1.374.3779,2.3042,2.3042,0,0,0-.9034,1.045,5.697,5.697,0,0,0-.2949,2.1425v4.6426H53.4731V25.12a6.1267,6.1267,0,0,0-.2358-2,1.825,1.825,0,0,0-.7075-.9219,2.066,2.066,0,0,0-1.1411-.3027,2.495,2.495,0,0,0-1.3545.3828,2.3435,2.3435,0,0,0-.9107,1.0733,5.7966,5.7966,0,0,0-.3017,2.1748v4.5771H45.8345Z" transform="translate(-0.1324 -0.5774)"/><path d="M72.5137,19.5508a7.0974,7.0974,0,0,1,3.1689.7275,5.763,5.763,0,0,1,2.3145,1.9766,4.7726,4.7726,0,0,1,.831,2.6953,4.85,4.85,0,0,1-.8359,2.7227A5.6925,5.6925,0,0,1,75.71,29.6543a7.0952,7.0952,0,0,1-3.1846.7139,6.4368,6.4368,0,0,1-4.3721-1.5743,4.9567,4.9567,0,0,1,.2354-7.8437A6.5261,6.5261,0,0,1,72.5137,19.5508Zm.05,2.43a3.33,3.33,0,0,0-2.3184.8369,2.7573,2.7573,0,0,0-.9267,2.1416,2.8025,2.8025,0,0,0,.916,2.1758,3.3131,3.3131,0,0,0,2.3183.832,3.3569,3.3569,0,0,0,2.335-.8418,2.9841,2.9841,0,0,0,.0166-4.3164A3.359,3.359,0,0,0,72.5635,21.9805Z" transform="translate(-0.1324 -0.5774)"/><path d="M81.63,16.0234h2.9873v3.792h1.7734v2.2217H84.6172v8.0664H81.63V22.0371H80.0977V19.8154H81.63Z" transform="translate(-0.1324 -0.5774)"/><path d="M99.917,25.7061H90.3193a2.6871,2.6871,0,0,0,1.1114,1.7451,3.8551,3.8551,0,0,0,2.3037.6474,4.3262,4.3262,0,0,0,2.8779-1.0117l2.5166,1.0215a5.769,5.769,0,0,1-2.2539,1.707,8.0168,8.0168,0,0,1-3.1191.5528,6.7147,6.7147,0,0,1-4.5635-1.5274,4.85,4.85,0,0,1-1.7617-3.8242,5.0014,5.0014,0,0,1,1.7558-3.91,6.4023,6.4023,0,0,1,4.4053-1.5556,6.6556,6.6556,0,0,1,4.5742,1.5556,5.2131,5.2131,0,0,1,1.7617,4.1084ZM96.93,23.6738a2.6423,2.6423,0,0,0-1.168-1.4,3.7648,3.7648,0,0,0-2.0224-.538,3.9711,3.9711,0,0,0-2.1924.6044,3.4428,3.4428,0,0,0-1.0957,1.334Z" transform="translate(-0.1324 -0.5774)"/><path d="M17.2612,18.4639a1.6653,1.6653,0,0,0-.8095-.5357,7.0446,7.0446,0,0,0-1.8609-.1631h-.93v3.1626h1.0635a4.7072,4.7072,0,0,0,2.229-.3672,1.3106,1.3106,0,0,0,.61-1.2187A1.3511,1.3511,0,0,0,17.2612,18.4639Z" transform="translate(-0.1324 -0.5774)"/><path d="M27.0669,17.0669,17.9332,7.9331a2.734,2.734,0,0,0-3.8663,0L.9332,21.0668a2.7338,2.7338,0,0,0,0,3.8663l9.1337,9.1337a2.7338,2.7338,0,0,0,3.8663,0L17.869,30.131l-3.8978-6.3439h-.3106v6.5254h-3.394V14.9058h3.5957a13.6338,13.6338,0,0,1,4.207.4555,4.1395,4.1395,0,0,1,2.7788,4.0166,3.859,3.859,0,0,1-.8422,2.54,5.1662,5.1662,0,0,1-2.5391,1.5449l2.6968,4.3735,6.9033-6.9033A2.7339,2.7339,0,0,0,27.0669,17.0669Z" transform="translate(-0.1324 -0.5774)"/></g><g id="Réteg_1" data-name="Réteg 1"><g id="wi-fi"><path d="M31.6,3.6056A11.4376,11.4376,0,0,0,23.9726.5774a1.0445,1.0445,0,0,0-.5758.1.7076.7076,0,0,0-.2232.175.7064.7064,0,0,0-.1749.2231.9092.9092,0,0,0-.1.437.8869.8869,0,0,0,.2694.6527.8366.8366,0,0,0,.2842.199,1.3415,1.3415,0,0,0,.5712.0843,9.3713,9.3713,0,0,1,2.1284.2842,9.5352,9.5352,0,0,1,3.7864,1.9182,13.1837,13.1837,0,0,1,1.2295,1.22,9.5944,9.5944,0,0,1,1.9626,3.84,9.4839,9.4839,0,0,1,.2842,2.1339,1.2751,1.2751,0,0,0,.0861.5676.8175.8175,0,0,0,.1972.2823.8869.8869,0,0,0,.6527.2694.9092.9092,0,0,0,.437-.1,1.18,1.18,0,0,0,.3981-.3981,1.0445,1.0445,0,0,0,.1-.5758A11.242,11.242,0,0,0,34.7117,8.43a11.3936,11.3936,0,0,0-2.1849-3.8623C32.3768,4.39,31.7427,3.7315,31.6,3.6056Z" transform="translate(-0.1324 -0.5774)"/><path d="M29.0875,5.933a8.723,8.723,0,0,0-1.2748-.9045,8.0593,8.0593,0,0,0-3.8966-1.0637.9834.9834,0,0,0-.4231.04A.8826.8826,0,0,0,22.99,5.2535a.8521.8521,0,0,0,.5018.4258.96.96,0,0,0,.3574.05,6.2293,6.2293,0,0,1,1.97.3426,6.359,6.359,0,0,1,4.2679,5.29,6.1867,6.1867,0,0,1,.0426.6406.8693.8693,0,0,0,.2731.7157.6507.6507,0,0,0,.2064.1546.9083.9083,0,0,0,1.0323-.1639.8421.8421,0,0,0,.2249-.3768,5.5245,5.5245,0,0,0-.0805-1.6173,8.0872,8.0872,0,0,0-1.721-3.7781C29.9217,6.7579,29.2671,6.0867,29.0875,5.933Z" transform="translate(-0.1324 -0.5774)"/><path d="M26.94,8.303a4.9385,4.9385,0,0,0-2.7246-1.13,2.599,2.599,0,0,0-.6748.0084A.8824.8824,0,0,0,22.982,8.43a.6777.6777,0,0,0,.1713.225.6325.6325,0,0,0,.2166.1629.9875.9875,0,0,0,.462.0972,3.18,3.18,0,0,1,1.9247.7046,4.3036,4.3036,0,0,1,.6008.636A3.1829,3.1829,0,0,1,26.91,11.63c.013.087.0287.2657.0352.3943a.8786.8786,0,0,0,.2286.6546.87.87,0,0,0,.9369.2481.8611.8611,0,0,0,.3407-.2148.8807.8807,0,0,0,.2528-.7008A4.8931,4.8931,0,0,0,27.66,9.0492,8.8227,8.8227,0,0,0,26.94,8.303Z" transform="translate(-0.1324 -0.5774)"/><path d="M24.6308,11.0118a1.0843,1.0843,0,0,0-1.721,1.08.9765.9765,0,0,0,.3.5425.9135.9135,0,0,0,.4333.2685,1.0773,1.0773,0,0,0,.86-.0879,1.1753,1.1753,0,0,0,.4008-.3916,1.1051,1.1051,0,0,0,.0824-.9305A1.1737,1.1737,0,0,0,24.6308,11.0118Z" transform="translate(-0.1324 -0.5774)"/></g></g></svg>